<svg xmlns="http://www.w3.org/2000/svg" xmlns:xlink="http://www.w3.org/1999/xlink" version="1.1" x="0px" y="0px" viewBox="0 0 100 125" style="enable-background:new 0 0 100 100;" xml:space="preserve"><path d="M20.8,80.8h49.7c5,0,9.1-4.1,9.1-9.1V56c4.8-0.2,8.6-4.2,8.6-9V28.3c0-5-4.1-9.1-9.1-9.1H50.5c-4.9,0-8.8,3.8-9,8.6H20.8  c-5,0-9.1,4.1-9.1,9.1v34.8C11.8,76.7,15.8,80.8,20.8,80.8z M50.5,23.5h28.6c2.6,0,4.7,2.1,4.7,4.7V47c0,2.5-1.9,4.5-4.3,4.7V36.9  c0-5-4.1-9.1-9.1-9.1H45.8C46,25.4,48.1,23.5,50.5,23.5z M16.1,36.9c0-2.6,2.1-4.7,4.7-4.7h20.6V47c0,5,4.1,9.1,9.1,9.1h24.8v15.7  c0,2.6-2.1,4.7-4.7,4.7H20.8c-2.6,0-4.7-2.1-4.7-4.7V36.9z"/><text x="0" y="115" fill="#000000" font-size="5px" font-weight="bold" font-family="'Helvetica Neue', Helvetica, Arial-Unicode, Arial, Sans-serif"></text><text x="0" y="120" fill="#000000" font-size="5px" font-weight="bold" font-family="'Helvetica Neue', Helvetica, Arial-Unicode, Arial, Sans-serif"></text></svg>