<svg xmlns="http://www.w3.org/2000/svg" xmlns:xlink="http://www.w3.org/1999/xlink" version="1.1" x="0px" y="0px" viewBox="0 0 100 125" enable-background="new 0 0 100 100" xml:space="preserve"><path d="M91.658,44.231c-11.221-11.2-26.131-17.369-41.981-17.369c-15.874,0-30.8,6.182-42.025,17.406  c-0.281,0.281-0.439,0.663-0.439,1.061s0.158,0.779,0.439,1.061L29.643,68.38c0.281,0.281,0.663,0.439,1.061,0.439  c0.398,0,0.779-0.158,1.061-0.439c0.96-0.96,1.985-1.829,3.063-2.612c0.35,4.834,4.06,7.78,4.225,7.909  c0.229,0.177,0.498,0.262,0.766,0.262c0.373,0,0.742-0.166,0.988-0.484c0.424-0.545,0.324-1.331-0.221-1.754  c-0.033-0.025-3.272-2.585-3.293-6.62c-0.002-0.32,0.026-0.623,0.056-0.924c3.121-1.745,6.584-2.805,10.205-3.104  c-0.448,1.207-0.732,2.535-0.725,4.04c0.026,5.237,4.086,8.448,4.259,8.582c0.228,0.177,0.497,0.262,0.764,0.262  c0.371,0,0.739-0.166,0.986-0.481c0.424-0.542,0.327-1.327-0.214-1.753c-0.032-0.026-3.275-2.625-3.295-6.623  c-0.008-1.561,0.38-2.885,0.975-4.106c3.063,0.074,6.035,0.687,8.808,1.799c-0.149,0.73-0.251,1.493-0.247,2.32  c0.026,5.237,4.087,8.448,4.26,8.583c0.229,0.177,0.498,0.262,0.766,0.262c0.373,0,0.742-0.166,0.988-0.484  c0.424-0.545,0.324-1.331-0.221-1.754c-0.033-0.025-3.272-2.585-3.293-6.62c-0.002-0.428,0.027-0.836,0.079-1.231  c2.222,1.168,4.28,2.673,6.109,4.494c0.586,0.583,1.533,0.583,2.119-0.002l21.989-21.989c0.281-0.281,0.439-0.663,0.439-1.061  C92.099,44.894,91.94,44.512,91.658,44.231z M68.58,65.19c-1.899-1.706-3.994-3.125-6.229-4.246  c0.667-1.358,1.593-2.587,2.554-3.849c1.902-2.497,3.869-5.08,3.851-8.853c-0.012-2.344-0.975-4.44-1.973-5.99l1.967-1.392  c0.145-0.103,0.224-0.274,0.209-0.45c-0.015-0.177-0.122-0.333-0.282-0.409l-6.813-3.265c-0.162-0.079-0.355-0.062-0.503,0.042  s-0.229,0.279-0.21,0.459l0.754,7.552c0.018,0.177,0.128,0.332,0.29,0.405c0.065,0.03,0.137,0.045,0.207,0.045  c0.102,0,0.203-0.031,0.289-0.092l2.051-1.451c0.777,1.226,1.505,2.827,1.514,4.559c0.015,2.923-1.614,5.062-3.339,7.326  c-0.997,1.309-2.056,2.715-2.845,4.347c-2.521-0.994-5.188-1.624-7.936-1.858c0.24-0.324,0.485-0.648,0.733-0.974  c1.902-2.497,3.869-5.079,3.851-8.852c-0.012-2.344-0.975-4.44-1.973-5.99l1.967-1.392c0.145-0.103,0.224-0.274,0.209-0.45  c-0.015-0.177-0.122-0.333-0.282-0.409l-6.813-3.265c-0.162-0.079-0.354-0.062-0.503,0.042c-0.147,0.104-0.229,0.279-0.21,0.459  l0.754,7.552c0.018,0.177,0.128,0.332,0.29,0.405c0.065,0.03,0.137,0.045,0.207,0.045c0.102,0,0.203-0.031,0.289-0.092l2.051-1.451  c0.777,1.225,1.505,2.827,1.514,4.558c0.015,2.922-1.614,5.061-3.339,7.325c-0.576,0.756-1.169,1.549-1.724,2.393  c-3.649,0.065-7.183,0.815-10.457,2.19c0.613-1.057,1.359-2.052,2.133-3.068c1.902-2.497,3.869-5.08,3.851-8.853  c-0.012-2.344-0.975-4.44-1.973-5.99l1.967-1.392c0.145-0.103,0.224-0.274,0.209-0.45c-0.015-0.177-0.122-0.333-0.282-0.409  l-6.813-3.265c-0.162-0.079-0.354-0.062-0.503,0.042c-0.147,0.104-0.229,0.279-0.21,0.459l0.754,7.552  c0.018,0.177,0.128,0.332,0.29,0.405c0.065,0.03,0.137,0.045,0.207,0.045c0.102,0,0.203-0.031,0.289-0.092l2.051-1.451  c0.777,1.226,1.505,2.827,1.514,4.559c0.015,2.923-1.614,5.062-3.339,7.326c-1.378,1.808-2.875,3.799-3.603,6.326  c-1.595,0.948-3.108,2.054-4.512,3.319L10.847,45.343c10.528-9.994,24.258-15.48,38.83-15.48c14.549,0,28.264,5.474,38.786,15.445  L68.58,65.19z"/><text x="0" y="115" fill="#000000" font-size="5px" font-weight="bold" font-family="'Helvetica Neue', Helvetica, Arial-Unicode, Arial, Sans-serif">Created by mungang kim</text><text x="0" y="120" fill="#000000" font-size="5px" font-weight="bold" font-family="'Helvetica Neue', Helvetica, Arial-Unicode, Arial, Sans-serif">from the Noun Project</text></svg>