<svg xmlns="http://www.w3.org/2000/svg" xmlns:xlink="http://www.w3.org/1999/xlink" version="1.1" x="0px" y="0px" viewBox="0 0 100 125" enable-background="new 0 0 100 100" xml:space="preserve"><path d="M99.2,34.269C85.775,21.813,68.302,14.954,50,14.954c-18.302,0-35.775,6.859-49.2,19.315  c-0.897,0.832-1.06,2.192-0.384,3.212l23.112,34.913c0.392,0.592,1.016,0.989,1.718,1.093c0.698,0.106,1.414-0.096,1.961-0.547  c0.083-0.068,0.169-0.132,0.252-0.199c-1.924,2.629-3.848,5.647-3.848,9.805c0,1.381,1.119,2.5,2.5,2.5s2.5-1.119,2.5-2.5  c0-2.989,1.638-5.188,3.535-7.734c1.561-2.095,3.265-4.394,4.118-7.324c4.325-1.797,8.995-2.749,13.737-2.749  c1.044,0,2.084,0.046,3.118,0.137c-0.375,2.626-1.878,4.653-3.589,6.949c-2.121,2.848-4.525,6.074-4.525,10.722  c0,1.381,1.119,2.5,2.5,2.5s2.5-1.119,2.5-2.5c0-2.989,1.638-5.188,3.535-7.734c1.87-2.511,3.948-5.311,4.517-9.145  c4.68,1.084,9.118,3.103,13.021,5.949c-0.052,0.07-0.102,0.138-0.154,0.209c-2.12,2.848-4.524,6.074-4.524,10.722  c0,1.381,1.119,2.5,2.5,2.5s2.5-1.119,2.5-2.5c0-2.989,1.638-5.188,3.534-7.734c1.098-1.473,2.268-3.046,3.163-4.868l21.489-32.462  C100.26,36.461,100.098,35.101,99.2,34.269z M78.999,59.521c-0.841-2.797-2.43-4.92-3.901-6.848  c-1.745-2.288-3.124-4.095-3.124-6.715v-0.827l1.533,2.161c0.487,0.688,1.259,1.054,2.041,1.054c0.5,0,1.006-0.149,1.444-0.461  c1.126-0.799,1.392-2.359,0.593-3.485l-5.932-8.362c-0.469-0.661-1.229-1.054-2.039-1.054c-0.022,0-0.042,0.007-0.064,0.008  c-0.026-0.001-0.05-0.008-0.077-0.008c-1.1,0-2.023,0.714-2.358,1.701L61.644,44.4c-0.799,1.126-0.533,2.687,0.593,3.485  c1.127,0.799,2.688,0.533,3.485-0.593l1.252-1.765v0.43c0,4.311,2.204,7.2,4.149,9.749c1.869,2.449,3.482,4.564,3.482,7.9  c0,1.405-0.326,2.624-0.841,3.773c-4.751-3.407-10.186-5.746-15.897-6.871c-0.728-3.303-2.523-5.686-4.163-7.835  c-1.745-2.288-3.125-4.095-3.125-6.715v-0.826l1.533,2.161c0.799,1.127,2.361,1.391,3.485,0.593  c1.126-0.799,1.392-2.359,0.593-3.485l-5.932-8.362c-0.469-0.661-1.229-1.054-2.039-1.054c-0.022,0-0.042,0.007-0.064,0.008  c-0.026-0.001-0.05-0.008-0.076-0.008c-1.099,0-2.022,0.714-2.357,1.7L40.25,44.4c-0.799,1.126-0.534,2.687,0.593,3.485  c0.439,0.312,0.944,0.461,1.444,0.461c0.783,0,1.554-0.367,2.041-1.054l1.252-1.765v0.431c0,4.311,2.205,7.2,4.15,9.749  c1.054,1.381,2.015,2.662,2.663,4.11C51.597,59.77,50.8,59.739,50,59.739c-4.546,0-9.034,0.773-13.28,2.235  c-0.451-4.093-2.537-6.845-4.41-9.3c-1.746-2.288-3.125-4.095-3.125-6.715v-0.826l1.533,2.161c0.487,0.688,1.258,1.054,2.041,1.054  c0.5,0,1.005-0.149,1.444-0.461c1.126-0.799,1.392-2.359,0.593-3.485l-5.932-8.362c-0.469-0.661-1.229-1.054-2.039-1.054  c-0.022,0-0.042,0.007-0.064,0.008c-0.026-0.001-0.05-0.008-0.076-0.008c-1.099,0-2.022,0.714-2.357,1.7L18.855,44.4  c-0.799,1.126-0.534,2.687,0.593,3.485c1.126,0.799,2.687,0.533,3.485-0.593l1.252-1.766v0.431c0,4.311,2.205,7.2,4.149,9.749  c1.869,2.449,3.482,4.564,3.482,7.9c0,0.149-0.021,0.285-0.028,0.43c-1.939,0.967-3.806,2.087-5.576,3.358L5.774,36.519  C18.048,25.821,33.669,19.954,50,19.954c16.331,0,31.951,5.867,44.226,16.565L78.999,59.521z"/><text x="0" y="115" fill="#000000" font-size="5px" font-weight="bold" font-family="'Helvetica Neue', Helvetica, Arial-Unicode, Arial, Sans-serif">Created by LAFS</text><text x="0" y="120" fill="#000000" font-size="5px" font-weight="bold" font-family="'Helvetica Neue', Helvetica, Arial-Unicode, Arial, Sans-serif">from the Noun Project</text></svg>