<svg xmlns="http://www.w3.org/2000/svg" xmlns:xlink="http://www.w3.org/1999/xlink" version="1.1" x="0px" y="0px" viewBox="0 0 20 25" enable-background="new 0 0 20 20" xml:space="preserve"><path fill="#000000" d="M19.7,0.3c-0.3-0.3-0.8-0.4-1.2-0.2l-18,9C0.1,9.3-0.1,9.8,0,10.2C0.1,10.7,0.5,11,1,11h8v8  c0,0.5,0.3,0.8,0.8,1c0.4,0.2,1-0.2,1.1-0.5l9-18C20.1,1.1,20,0.6,19.7,0.3z M11,14.8V10c0-0.6-0.4-1-1-1H5.2l11.5-5.8L11,14.8z"/><text x="0" y="35" fill="#000000" font-size="5px" font-weight="bold" font-family="'Helvetica Neue', Helvetica, Arial-Unicode, Arial, Sans-serif"></text><text x="0" y="40" fill="#000000" font-size="5px" font-weight="bold" font-family="'Helvetica Neue', Helvetica, Arial-Unicode, Arial, Sans-serif"></text></svg>