<svg xmlns="http://www.w3.org/2000/svg" viewBox="0 0 100 125" x="0px" y="0px"><path d="M75.4722,46.31A25.4742,25.4742,0,1,0,38.4549,69.0146V74.02a1.51,1.51,0,0,0-.1422,2.9868c.03.0068.0779.0166.1422.0292v3.2751a1.4974,1.4974,0,0,0-1.3361,1.2,1.5131,1.5131,0,0,0,1.1754,1.7841q.0425.0089.1607.0321v1.9049a4.8362,4.8362,0,0,0,4.8313,4.8313h.4675a6.4164,6.4164,0,0,0,12.4868,0h.4781a4.837,4.837,0,0,0,4.8323-4.8313V80.2948c.2766-.1929.5444-.3925.7957-.5941a1.5185,1.5185,0,0,0,.2366-2.1269,1.4625,1.4625,0,0,0-1.0323-.5385V74.0027c.2669-.1851.5337-.3847.7957-.5931a1.5185,1.5185,0,0,0,.2366-2.1269,1.4591,1.4591,0,0,0-1.0323-.5386V69.0048A25.3624,25.3624,0,0,0,75.4722,46.31ZM50,91.9752a3.3911,3.3911,0,0,1-3.0511-1.9088H53.054A3.3944,3.3944,0,0,1,50,91.9752Zm-8.5232-8.2028a47.153,47.153,0,0,0,5.2647.3009A29.6745,29.6745,0,0,0,58.5193,81.97v3.2624a1.8065,1.8065,0,0,1-1.8007,1.8094H43.2862a1.8108,1.8108,0,0,1-1.8094-1.8094Zm5.2647-5.99a29.6527,29.6527,0,0,0,11.7778-2.1045v2.9274c-5.4127,2.9274-12.9494,2.5924-17.0425,2.1123V77.4813A47.4444,47.4444,0,0,0,46.7415,77.7822Zm-5.2647-7.4607a25.5525,25.5525,0,0,0,17.0425,0V72.313c-5.4137,2.9313-12.9484,2.5915-17.0425,2.1123ZM72.45,46.31A22.4408,22.4408,0,0,1,58.7647,66.9773a22.4112,22.4112,0,0,1-17.5343,0A22.4513,22.4513,0,1,1,72.45,46.31Z"/><path d="M50,15.9905a1.5147,1.5147,0,0,0,1.5124-1.5129V6.5124a1.5124,1.5124,0,1,0-3.0248,0v7.9652A1.5147,1.5147,0,0,0,50,15.9905Z"/><path d="M78.14,16.6556a1.5016,1.5016,0,0,0-1.0693.4436l-5.6338,5.6313a1.5126,1.5126,0,0,0,2.14,2.1386L79.21,19.2378a1.5129,1.5129,0,0,0-1.07-2.5822Z"/><path d="M89.7957,44.7957H81.8286a1.5124,1.5124,0,0,0,0,3.0248h7.9671a1.5124,1.5124,0,0,0,0-3.0248Z"/><path d="M73.5771,67.7447h-.001a1.5132,1.5132,0,0,0-2.14,2.1405L77.07,75.518a1.5133,1.5133,0,0,0,2.14-2.1406Z"/><path d="M26.4239,24.8691a1.5122,1.5122,0,1,0,2.1386-2.1386l-5.6318-5.6313a1.5126,1.5126,0,1,0-2.14,2.1386Z"/><path d="M18.1685,44.7957H10.2043a1.5124,1.5124,0,0,0,0,3.0248h7.9642a1.5124,1.5124,0,1,0,0-3.0248Z"/><path d="M26.4239,67.7447,20.79,73.3784a1.5133,1.5133,0,0,0,2.1406,2.14l5.6328-5.6338a1.5129,1.5129,0,0,0-2.14-2.14Z"/><text x="0" y="115" fill="#000000" font-size="5px" font-weight="bold" font-family="'Helvetica Neue', Helvetica, Arial-Unicode, Arial, Sans-serif"></text><text x="0" y="120" fill="#000000" font-size="5px" font-weight="bold" font-family="'Helvetica Neue', Helvetica, Arial-Unicode, Arial, Sans-serif"></text></svg>