<svg xmlns="http://www.w3.org/2000/svg" viewBox="0 0 24 30" x="0px" y="0px"><path d="M17.5,11H17V7A5,5,0,0,0,7,7v4H6.5A1.5,1.5,0,0,0,5,12.5v8A1.5,1.5,0,0,0,6.5,22h11A1.5,1.5,0,0,0,19,20.5v-8A1.5,1.5,0,0,0,17.5,11ZM8,7a4,4,0,0,1,8,0v4H8ZM18,20.5a.5.5,0,0,1-.5.5H6.5a.5.5,0,0,1-.5-.5v-8a.5.5,0,0,1,.5-.5h11a.5.5,0,0,1,.5.5Z"/><text x="0" y="39" fill="#000000" font-size="5px" font-weight="bold" font-family="'Helvetica Neue', Helvetica, Arial-Unicode, Arial, Sans-serif"></text><text x="0" y="44" fill="#000000" font-size="5px" font-weight="bold" font-family="'Helvetica Neue', Helvetica, Arial-Unicode, Arial, Sans-serif"></text></svg>