<svg xmlns="http://www.w3.org/2000/svg" xmlns:xlink="http://www.w3.org/1999/xlink" viewBox="0 0 12 22.5" version="1.1" x="0px" y="0px"><title>locked</title><desc>Created with Sketch.</desc><g stroke="none" stroke-width="1" fill="none" fill-rule="evenodd"><path d="M10,8 L10,3.8 C10,1.74 8.168,0 6,0 C3.832,0 2,1.74 2,3.8 L2,8 C0.9,8 0,8.9 0,10 L0,16 C0,17.1 0.9,18 2,18 L10,18 C11.1,18 12,17.1 12,16 L12,10 C12,8.9 11.1,8 10,8 L10,8 Z M4,3.8 C4,2.857 4.953,2 6,2 C7.047,2 8,2.857 8,3.8 L8,8 L4,8 L4,3.8 Z" fill="#000000"/></g><text x="0" y="33" fill="#000000" font-size="5px" font-weight="bold" font-family="'Helvetica Neue', Helvetica, Arial-Unicode, Arial, Sans-serif">Created by Kevin White</text><text x="0" y="38" fill="#000000" font-size="5px" font-weight="bold" font-family="'Helvetica Neue', Helvetica, Arial-Unicode, Arial, Sans-serif">from the Noun Project</text></svg>