<svg xmlns="http://www.w3.org/2000/svg" xmlns:xlink="http://www.w3.org/1999/xlink" xmlns:serif="http://www.serif.com/" viewBox="0 0 32 40" version="1.1" xml:space="preserve" style="" x="0px" y="0px" fill-rule="evenodd" clip-rule="evenodd" stroke-linejoin="round" stroke-miterlimit="2"><path d="M9.429,5.537l-0,15.73c-0.769,-0.552 -1.706,-0.877 -2.715,-0.877c-2.595,0 -4.714,2.147 -4.714,4.805c-0,2.659 2.119,4.805 4.714,4.805c2.595,0 4.715,-2.146 4.715,-4.805l-0,-13.713l16.571,-2.263l-0,10.78c-0.768,-0.553 -1.705,-0.877 -2.714,-0.877c-2.595,-0 -4.715,2.146 -4.715,4.805c0,2.658 2.12,4.805 4.715,4.805c2.595,-0 4.714,-2.147 4.714,-4.805c0,-0.074 -0.002,-0.147 -0.005,-0.219c0.003,-0.032 0.005,-0.065 0.005,-0.098l-0,-20.61c0,-0.289 -0.125,-0.564 -0.342,-0.753c-0.218,-0.19 -0.507,-0.277 -0.793,-0.238l-18.572,2.537c-0.495,0.067 -0.864,0.491 -0.864,0.991Z"/><text x="0" y="47" fill="#000000" font-size="5px" font-weight="bold" font-family="'Helvetica Neue', Helvetica, Arial-Unicode, Arial, Sans-serif">Created by Singlar</text><text x="0" y="52" fill="#000000" font-size="5px" font-weight="bold" font-family="'Helvetica Neue', Helvetica, Arial-Unicode, Arial, Sans-serif">from the Noun Project</text></svg>