<svg xmlns="http://www.w3.org/2000/svg" xmlns:xlink="http://www.w3.org/1999/xlink" xml:space="preserve" version="1.1" style="shape-rendering:geometricPrecision;text-rendering:geometricPrecision;image-rendering:optimizeQuality;" viewBox="0 0 846.66 1058.325" x="0px" y="0px" fill-rule="evenodd" clip-rule="evenodd"><defs><style type="text/css">
   
    .fil0 {fill:black}
   
  </style></defs><g><path class="fil0" d="M225.55 601.96c16.4,0 32.04,3.05 45.98,8.45l0 -343.14c0,-12.93 8.31,-23.92 19.88,-27.93l394.53 -164.82c19.54,-8.12 40.82,6.5 40.82,27.24l0.05 451.92c6.04,58.76 -53.75,93.75 -105.73,93.75 -49.52,0 -106.12,-31.24 -106.12,-86.24 0,-55 56.6,-86.24 106.12,-86.24 16.66,0 32.53,3.15 46.62,8.71l0 -231.05 -337.07 140.79 0 282.56c10.34,60.71 -51.34,98.48 -105.08,98.48 -49.51,0 -106.12,-31.24 -106.12,-86.24 0,-55 56.61,-86.24 106.12,-86.24z"/></g><text x="0" y="861.66" fill="#000000" font-size="5px" font-weight="bold" font-family="'Helvetica Neue', Helvetica, Arial-Unicode, Arial, Sans-serif"></text><text x="0" y="866.66" fill="#000000" font-size="5px" font-weight="bold" font-family="'Helvetica Neue', Helvetica, Arial-Unicode, Arial, Sans-serif"></text></svg>