<svg xmlns="http://www.w3.org/2000/svg" viewBox="0 0 66 65" x="0px" y="0px"><path fill-rule="evenodd" d="M314,221 L314,236 C314,236.552285 313.552285,237 313,237 C312.447715,237 312,236.552285 312,236 L312,221 L304,221 C303.534344,221 303.130316,220.678591 303.025609,220.22486 L297.025609,194.22486 C296.921746,193.774788 297.13965,193.312141 297.552786,193.105573 C297.685693,193.03912 297.935976,192.918015 298.295865,192.750067 C298.891198,192.472245 299.580522,192.163237 300.356081,191.830855 C302.567997,190.882891 305.031154,189.935523 307.683772,189.051317 C315.277434,186.520096 322.877915,185 330,185 C337.122085,185 344.722566,186.520096 352.316228,189.051317 C354.968846,189.935523 357.432003,190.882891 359.643919,191.830855 C360.419478,192.163237 361.108802,192.472245 361.704135,192.750067 C362.064024,192.918015 362.314307,193.03912 362.447214,193.105573 C362.86035,193.312141 363.078254,193.774788 362.974391,194.22486 L356.974391,220.22486 C356.869684,220.678591 356.465656,221 356,221 L348,221 L348,236 C348,236.552285 347.552285,237 347,237 C346.447715,237 346,236.552285 346,236 L346,221 L331,221 L331,236 C331,236.552285 330.552285,237 330,237 C329.447715,237 329,236.552285 329,236 L329,221 L314,221 Z M314,219 L329,219 L329,206.414214 L325.707107,209.707107 C325.316582,210.097631 324.683418,210.097631 324.292893,209.707107 C323.902369,209.316582 323.902369,208.683418 324.292893,208.292893 L329.292893,203.292893 C329.683418,202.902369 330.316582,202.902369 330.707107,203.292893 L335.707107,208.292893 C336.097631,208.683418 336.097631,209.316582 335.707107,209.707107 C335.316582,210.097631 334.683418,210.097631 334.292893,209.707107 L331,206.414214 L331,219 L346,219 L346,206.414214 L342.707107,209.707107 C342.316582,210.097631 341.683418,210.097631 341.292893,209.707107 C340.902369,209.316582 340.902369,208.683418 341.292893,208.292893 L346.292893,203.292893 C346.683418,202.902369 347.316582,202.902369 347.707107,203.292893 L352.707107,208.292893 C353.097631,208.683418 353.097631,209.316582 352.707107,209.707107 C352.316582,210.097631 351.683418,210.097631 351.292893,209.707107 L348,206.414214 L348,219 L355.204487,219 L360.845329,194.556352 C360.27173,194.288857 359.606084,193.990575 358.856081,193.669145 C356.692997,192.742109 354.281154,191.814477 351.683772,190.948683 C344.277434,188.479904 336.877915,187 330,187 C323.122085,187 315.722566,188.479904 308.316228,190.948683 C305.718846,191.814477 303.307003,192.742109 301.143919,193.669145 C300.393916,193.990575 299.72827,194.288857 299.154671,194.556352 L304.795513,219 L312,219 L312,206.414214 L308.707107,209.707107 C308.316582,210.097631 307.683418,210.097631 307.292893,209.707107 C306.902369,209.316582 306.902369,208.683418 307.292893,208.292893 L312.292893,203.292893 C312.683418,202.902369 313.316582,202.902369 313.707107,203.292893 L318.707107,208.292893 C319.097631,208.683418 319.097631,209.316582 318.707107,209.707107 C318.316582,210.097631 317.683418,210.097631 317.292893,209.707107 L314,206.414214 L314,219 L314,219 Z" transform="translate(-297 -185)"/><text x="0" y="67" fill="#000000" font-size="5px" font-weight="bold" font-family="'Helvetica Neue', Helvetica, Arial-Unicode, Arial, Sans-serif">Created by Andrejs Kirma</text><text x="0" y="72" fill="#000000" font-size="5px" font-weight="bold" font-family="'Helvetica Neue', Helvetica, Arial-Unicode, Arial, Sans-serif">from the Noun Project</text></svg>