<svg xmlns="http://www.w3.org/2000/svg" xmlns:xlink="http://www.w3.org/1999/xlink" version="1.1" x="0px" y="0px" viewBox="0 0 128 160" style="enable-background:new 0 0 128 128;" xml:space="preserve"><style type="text/css">
	.st0{display:none;}
	.st1{display:inline;}
	.st2{fill:none;stroke:#000000;stroke-width:0.1;stroke-miterlimit:10;}
</style><g class="st0"><g class="st1"><rect class="st2" width="128" height="128"/><line class="st2" x1="0" y1="124" x2="128" y2="124"/><line class="st2" x1="0" y1="120" x2="128" y2="120"/><line class="st2" x1="0" y1="116" x2="128" y2="116"/><line class="st2" x1="0" y1="112" x2="128" y2="112"/><line class="st2" x1="0" y1="108" x2="128" y2="108"/><line class="st2" x1="0" y1="104" x2="128" y2="104"/><line class="st2" x1="0" y1="100" x2="128" y2="100"/><line class="st2" x1="0" y1="96" x2="128" y2="96"/><line class="st2" x1="0" y1="92" x2="128" y2="92"/><line class="st2" x1="0" y1="88" x2="128" y2="88"/><line class="st2" x1="0" y1="84" x2="128" y2="84"/><line class="st2" x1="0" y1="80" x2="128" y2="80"/><line class="st2" x1="0" y1="76" x2="128" y2="76"/><line class="st2" x1="0" y1="72" x2="128" y2="72"/><line class="st2" x1="0" y1="68" x2="128" y2="68"/><line class="st2" x1="0" y1="64" x2="128" y2="64"/><line class="st2" x1="0" y1="60" x2="128" y2="60"/><line class="st2" x1="0" y1="56" x2="128" y2="56"/><line class="st2" x1="0" y1="52" x2="128" y2="52"/><line class="st2" x1="0" y1="48" x2="128" y2="48"/><line class="st2" x1="0" y1="44" x2="128" y2="44"/><line class="st2" x1="0" y1="40" x2="128" y2="40"/><line class="st2" x1="0" y1="36" x2="128" y2="36"/><line class="st2" x1="0" y1="32" x2="128" y2="32"/><line class="st2" x1="0" y1="28" x2="128" y2="28"/><line class="st2" x1="0" y1="24" x2="128" y2="24"/><line class="st2" x1="0" y1="20" x2="128" y2="20"/><line class="st2" x1="0" y1="16" x2="128" y2="16"/><line class="st2" x1="0" y1="12" x2="128" y2="12"/><line class="st2" x1="0" y1="8" x2="128" y2="8"/><line class="st2" x1="0" y1="4" x2="128" y2="4"/><line class="st2" x1="124" y1="0" x2="124" y2="128"/><line class="st2" x1="120" y1="0" x2="120" y2="128"/><line class="st2" x1="116" y1="0" x2="116" y2="128"/><line class="st2" x1="112" y1="0" x2="112" y2="128"/><line class="st2" x1="108" y1="0" x2="108" y2="128"/><line class="st2" x1="104" y1="0" x2="104" y2="128"/><line class="st2" x1="100" y1="0" x2="100" y2="128"/><line class="st2" x1="96" y1="0" x2="96" y2="128"/><line class="st2" x1="92" y1="0" x2="92" y2="128"/><line class="st2" x1="88" y1="0" x2="88" y2="128"/><line class="st2" x1="84" y1="0" x2="84" y2="128"/><line class="st2" x1="80" y1="0" x2="80" y2="128"/><line class="st2" x1="76" y1="0" x2="76" y2="128"/><line class="st2" x1="72" y1="0" x2="72" y2="128"/><line class="st2" x1="68" y1="0" x2="68" y2="128"/><line class="st2" x1="64" y1="0" x2="64" y2="128"/><line class="st2" x1="60" y1="0" x2="60" y2="128"/><line class="st2" x1="56" y1="0" x2="56" y2="128"/><line class="st2" x1="52" y1="0" x2="52" y2="128"/><line class="st2" x1="48" y1="0" x2="48" y2="128"/><line class="st2" x1="44" y1="0" x2="44" y2="128"/><line class="st2" x1="40" y1="0" x2="40" y2="128"/><line class="st2" x1="36" y1="0" x2="36" y2="128"/><line class="st2" x1="32" y1="0" x2="32" y2="128"/><line class="st2" x1="28" y1="0" x2="28" y2="128"/><line class="st2" x1="24" y1="0" x2="24" y2="128"/><line class="st2" x1="20" y1="0" x2="20" y2="128"/><line class="st2" x1="16" y1="0" x2="16" y2="128"/><line class="st2" x1="12" y1="0" x2="12" y2="128"/><line class="st2" x1="8" y1="0" x2="8" y2="128"/><line class="st2" x1="4" y1="0" x2="4" y2="128"/></g></g><g><g><path d="M119.2,17.8H8.8c-3.2,0-5.8,2.6-5.8,5.8v56.8c0,3.2,2.6,5.8,5.8,5.8H33c0.3,2,0.9,3.8,1.5,5.5c0.5,1.5,1,3,1.3,4.5    c0.7,3.7,0.2,7.6-1.3,11.2c-0.4,1,0,2.2,1.1,2.6c0.3,0.1,0.5,0.2,0.8,0.2c0.8,0,1.5-0.5,1.8-1.2c1.8-4.3,2.4-9,1.5-13.5    c-0.3-1.8-0.9-3.5-1.4-5.1c-0.5-1.4-0.9-2.8-1.2-4.3h22.6c0.3,2,0.9,3.8,1.5,5.5c0.5,1.5,1,3,1.3,4.5c0.7,3.7,0.2,7.6-1.3,11.2    c-0.4,1,0,2.2,1.1,2.6c0.3,0.1,0.5,0.2,0.8,0.2c0.8,0,1.5-0.5,1.8-1.2c1.8-4.3,2.4-9,1.5-13.5C66,93.7,65.5,92,65,90.4    c-0.5-1.4-0.9-2.8-1.2-4.3h23.1c0.2,2.5,0.7,4.9,1.3,7.2c1.1,4.8,2.2,9.4-0.3,13.8c-0.5,1-0.2,2.2,0.8,2.7c0.3,0.2,0.6,0.3,1,0.3    c0.7,0,1.4-0.4,1.7-1c3.2-5.8,1.9-11.6,0.7-16.7c-0.5-2.2-1-4.3-1.2-6.3h28.3c3.2,0,5.8-2.6,5.8-5.8V23.6    C125,20.4,122.4,17.8,119.2,17.8z M121,80.4c0,1-0.8,1.8-1.8,1.8H90.6c0-2.8,0.6-5.4,1.3-8.3c1-4.3,2.1-8.7,0.7-13.4l6.5,6.4    c0.4,0.4,0.9,0.6,1.4,0.6c0.5,0,1-0.2,1.4-0.6c0.8-0.8,0.8-2.1,0-2.8L90.6,53L79.5,64.1c-0.8,0.8-0.8,2,0,2.8s2,0.8,2.8,0l6.2-6.1    c1.6,4,0.6,7.8-0.4,12.2c-0.7,2.9-1.4,6-1.4,9.2H63.5c0.2-2.6,0.8-5,1.4-7.5c1.1-4.4,2.3-9,0.8-14.2l6.6,6.5    c0.4,0.4,0.9,0.6,1.4,0.6c0.5,0,1-0.2,1.4-0.6c0.8-0.8,0.8-2.1,0-2.8L64,53L52.8,64.1c-0.8,0.8-0.8,2,0,2.8c0.8,0.8,2,0.8,2.8,0    l6.1-6.1c1.5,4.5,0.5,8.4-0.7,12.8c-0.7,2.7-1.4,5.5-1.6,8.5H36.8c0.2-2.6,0.8-5,1.4-7.5c1.1-4.4,2.3-9,0.8-14.2l6.6,6.5    c0.4,0.4,0.9,0.6,1.4,0.6c0.5,0,1-0.2,1.4-0.6c0.8-0.8,0.8-2.1,0-2.8L37.3,53L26.1,64.1c-0.8,0.8-0.8,2,0,2.8s2,0.8,2.8,0l6.1-6.1    c1.5,4.5,0.5,8.4-0.7,12.8c-0.7,2.7-1.4,5.5-1.6,8.5h-24c-1,0-1.8-0.8-1.8-1.8V23.6c0-1,0.8-1.8,1.8-1.8h110.4    c1,0,1.8,0.8,1.8,1.8V80.4z"/></g></g><text x="0" y="143" fill="#000000" font-size="5px" font-weight="bold" font-family="'Helvetica Neue', Helvetica, Arial-Unicode, Arial, Sans-serif">Created by SBTS</text><text x="0" y="148" fill="#000000" font-size="5px" font-weight="bold" font-family="'Helvetica Neue', Helvetica, Arial-Unicode, Arial, Sans-serif">from the Noun Project</text></svg>