<svg xmlns="http://www.w3.org/2000/svg" xmlns:xlink="http://www.w3.org/1999/xlink" version="1.1" x="0px" y="0px" viewBox="0 0 100 125" style="enable-background:new 0 0 100 100;" xml:space="preserve"><style type="text/css">
	.st0{fill:none;stroke:#9AC8DE;stroke-width:0.1;stroke-miterlimit:10;}
	.st1{fill:none;stroke:#548E75;stroke-width:0.1;stroke-miterlimit:10;}
	.st2{fill:none;stroke:#CCBD84;stroke-width:0.1;stroke-miterlimit:10;}
	.st3{fill:none;stroke:#855848;stroke-width:0.1;stroke-miterlimit:10;}
	.st4{fill:none;stroke:#A1DE9A;stroke-width:0.1;stroke-miterlimit:10;}
	.st5{fill:none;stroke:#B35A3E;stroke-width:0.1;stroke-miterlimit:10;}
	.st6{fill:none;stroke:#7CB28A;stroke-width:0.1;stroke-miterlimit:10;}
	.st7{fill:none;stroke:#BEB1FF;stroke-width:0.1;stroke-miterlimit:10;}
	.st8{fill:none;stroke:#6B0401;stroke-width:0.1;stroke-miterlimit:10;}
	.st9{fill:none;stroke:#237853;stroke-width:0.1;stroke-miterlimit:10;}
	.st10{fill:none;stroke:#001508;stroke-width:2;stroke-miterlimit:10;}
	.st11{fill:none;stroke:#000000;stroke-width:4;stroke-miterlimit:10;}
</style><path d="M50,95C25.2,95,5,74.8,5,50S25.2,5,50,5s45,20.2,45,45S74.8,95,50,95z M50,13c-20.4,0-37,16.6-37,37s16.6,37,37,37  s37-16.6,37-37S70.4,13,50,13z"/><circle cx="50" cy="74.3" r="4"/><path d="M50,61.8c-2.2,0-4-1.8-4-4v-33c0-2.2,1.8-4,4-4c2.2,0,4,1.8,4,4v33C54,60,52.2,61.8,50,61.8z"/><text x="0" y="115" fill="#000000" font-size="5px" font-weight="bold" font-family="'Helvetica Neue', Helvetica, Arial-Unicode, Arial, Sans-serif"></text><text x="0" y="120" fill="#000000" font-size="5px" font-weight="bold" font-family="'Helvetica Neue', Helvetica, Arial-Unicode, Arial, Sans-serif"></text></svg>