<svg xmlns="http://www.w3.org/2000/svg" xmlns:xlink="http://www.w3.org/1999/xlink" version="1.1" x="0px" y="0px" viewBox="0 0 100 125" style="enable-background:new 0 0 100 100;" xml:space="preserve"><path d="M92.6,39c-1.6-0.4-4.9-1.3-5.1,0c-0.2,1.3-0.6,3.6-0.6,3.6l-2.7,0.2c0,0-0.3-0.3-0.6-1.4c-0.3-1.1-3.2-10.8-5.5-14.1  c-2.3-3.3-3.9-2.9-3.9-2.9v0.1c0,0-9-1.7-24.3-1.7s-24.3,1.7-24.3,1.7v-0.1c0,0-1.5-0.4-3.9,2.9c-2.3,3.3-5.2,13-5.5,14.1  c-0.3,1.1-0.6,1.4-0.6,1.4L13,42.6c0,0-0.3-2.3-0.6-3.6c-0.2-1.3-3.5-0.4-5.1,0C5.8,39.3,5,41.8,5,42.3c0,0.5,0.4,0.9,1.1,1.2  s5,0.6,5.7,0.6c0.8,0,0.7-0.2,0.7-0.2l2.6,0.2c0,0-0.2,0.9-0.7,1.1c-0.5,0.2-0.6,0.7-0.9,1.1c-0.3,0.4-3.3,2.6-3.8,3.9  c-1.1,2.5-0.2,7.4-0.2,11.1c0,3.6,0.7,9.4,1,11.8s2.3,4.1,2.3,4.1s7.9,0,9.2,0c1.3,0,3.8-0.4,5.1-0.4s22.9,0,22.9,0s21.6,0,22.9,0  c1.3,0,3.8,0.4,5.1,0.4c1.3,0,9.2,0,9.2,0s2.1-1.7,2.3-4.1c0.3-2.4,1-8.2,1-11.8c0-3.6,0.9-8.5-0.2-11.1c-0.5-1.2-3.5-3.4-3.8-3.9  c-0.3-0.4-0.4-0.9-0.9-1.1c-0.5-0.2-0.7-1.1-0.7-1.1l2.6-0.2c0,0-0.1,0.2,0.7,0.2c0.8,0,5-0.2,5.7-0.6s1.1-0.7,1.1-1.2  C95,41.8,94.2,39.3,92.6,39z M18.9,41.4c0.4-1.9,4.2-14.4,5.3-15.2c0,0,12-0.9,25.7-0.9s25.7,0.9,25.7,0.9  c1.2,0.8,4.9,13.3,5.3,15.2c0.4,1.9-0.2,1.9-0.2,1.9H50H19.1C19.1,43.3,18.5,43.3,18.9,41.4z M22.2,66.2c-0.7,0-8.5-0.1-8.5-0.1  s1.7,3.3,2,3.9c0.3,0.7,0.3,1.9-0.7,1.6c-0.9-0.3-1.9-2.3-2.2-3.4c-0.3-1.2-0.7-4.1-0.7-4.1l11.8,0.9C23.9,65.1,22.9,66.2,22.2,66.2  z M23.4,56.8c-2.9,0-6.7-1.1-7.8-1.4s-1.9-1.5-1.9-3.1s0-3.3,1.8-5.1c0,0,2.1,0,3.8,1.4c1.6,1.3,3,2.5,4.8,3.1  c2.7,0.8,4.7,3.7,4.7,3.7S26.3,56.8,23.4,56.8z M71.2,73.4c-1,0-21.2,0-21.2,0s-20.1,0-21.2,0c-1,0-2.5-0.2-1.2-1.6  c1-1,2.7-1.8,6-1.8c4.1,0,10.1,0,16.3,0s12.2,0,16.3,0c3.3,0,5,0.8,6,1.8C73.7,73.2,72.2,73.4,71.2,73.4z M87.9,64.2  c0,0-0.4,2.9-0.7,4.1c-0.3,1.2-1.3,3.1-2.2,3.4c-0.9,0.3-1-1-0.7-1.6s2-3.9,2-3.9s-7.8,0.1-8.5,0.1s-1.6-1.2-1.6-1.2L87.9,64.2z   M86.2,52.3c0,1.6-0.7,2.8-1.9,3.1s-5,1.4-7.8,1.4c-2.9,0-5.4-1.4-5.4-1.4s1.9-2.9,4.7-3.7c1.8-0.5,3.1-1.8,4.8-3.1  c1.8-1.4,3.8-1.4,3.8-1.4C86.2,49,86.2,50.7,86.2,52.3z"/><text x="0" y="115" fill="#000000" font-size="5px" font-weight="bold" font-family="'Helvetica Neue', Helvetica, Arial-Unicode, Arial, Sans-serif">Created by Ervin Bolat</text><text x="0" y="120" fill="#000000" font-size="5px" font-weight="bold" font-family="'Helvetica Neue', Helvetica, Arial-Unicode, Arial, Sans-serif">from the Noun Project</text></svg>