<svg xmlns="http://www.w3.org/2000/svg" data-name="Layer 1" viewBox="0 0 100 125" x="0px" y="0px"><title>Artboard 24</title><path d="M50,1A49,49,0,1,0,99,50,49.06,49.06,0,0,0,50,1ZM38.9,85A36.86,36.86,0,0,1,15,60.85,2.19,2.19,0,0,1,17.06,58h0a24.72,24.72,0,0,1,24.7,23.82l0,1A2.21,2.21,0,0,1,38.9,85ZM20.44,36.65a2.29,2.29,0,0,1-1.22.36h0a2.32,2.32,0,0,1-2.06-3.36,36.68,36.68,0,0,1,65.69,0A2.32,2.32,0,0,1,80.78,37a2.29,2.29,0,0,1-1.22-.36c-6.8-4.27-17.51-7-29.56-7S27.24,32.38,20.44,36.65ZM85,60.85A36.86,36.86,0,0,1,61.08,85a2.21,2.21,0,0,1-2.9-2.17l0-1A24.72,24.72,0,0,1,82.92,58h0A2.19,2.19,0,0,1,85,60.85Z"/><text x="0" y="115" fill="#000000" font-size="5px" font-weight="bold" font-family="'Helvetica Neue', Helvetica, Arial-Unicode, Arial, Sans-serif"></text><text x="0" y="120" fill="#000000" font-size="5px" font-weight="bold" font-family="'Helvetica Neue', Helvetica, Arial-Unicode, Arial, Sans-serif"></text></svg>