<svg xmlns="http://www.w3.org/2000/svg" xmlns:xlink="http://www.w3.org/1999/xlink" version="1.1" x="0px" y="0px" viewBox="0 0 100 125" enable-background="new 0 0 100 100" xml:space="preserve"><g><path d="M50.989,19.903c-1.48-0.717-3.24-0.523-4.529,0.498L26.757,35.992H13.11c-2.369,0-4.291,1.92-4.291,4.29v19.436   c0,2.369,1.922,4.289,4.291,4.289h13.646L46.46,79.599c0.773,0.611,1.713,0.927,2.662,0.927c0.637,0,1.273-0.144,1.867-0.429   c1.484-0.717,2.424-2.219,2.424-3.862v-52.47C53.411,22.12,52.47,20.618,50.989,19.903z"/><path d="M69.175,34.81c-1.676-1.676-4.393-1.676-6.066,0c-1.676,1.676-1.676,4.393,0,6.066c5.029,5.03,5.029,13.215,0,18.245   c-1.676,1.675-1.676,4.392,0,6.065c0.836,0.84,1.936,1.259,3.033,1.259c1.1,0,2.195-0.419,3.033-1.259   c4.059-4.059,6.293-9.45,6.293-15.188C75.468,44.261,73.231,38.866,69.175,34.81z"/><path d="M74.231,23.685c-1.674,1.676-1.674,4.393,0,6.068c11.164,11.163,11.164,29.327,0,40.49c-1.674,1.675-1.674,4.393,0,6.066   c0.838,0.838,1.936,1.257,3.033,1.257c1.1,0,2.197-0.419,3.035-1.257c14.508-14.508,14.508-38.119,0-52.627   C78.624,22.011,75.907,22.011,74.231,23.685z"/></g><text x="0" y="115" fill="#000000" font-size="5px" font-weight="bold" font-family="'Helvetica Neue', Helvetica, Arial-Unicode, Arial, Sans-serif">Created by Marta Ambrosetti</text><text x="0" y="120" fill="#000000" font-size="5px" font-weight="bold" font-family="'Helvetica Neue', Helvetica, Arial-Unicode, Arial, Sans-serif">from the Noun Project</text></svg>