<svg xmlns="http://www.w3.org/2000/svg" xmlns:xlink="http://www.w3.org/1999/xlink" version="1.1" x="0px" y="0px" viewBox="0 0 100 125" enable-background="new 0 0 100 100" xml:space="preserve"><path d="M93.073,41.825c-11.221-11.2-26.131-17.369-41.981-17.369c-15.875,0-30.799,6.182-42.025,17.406  c-0.281,0.281-0.439,0.663-0.439,1.061s0.158,0.779,0.439,1.061l21.991,21.991c0.281,0.281,0.663,0.439,1.061,0.439  s0.779-0.158,1.061-0.439c2.161-2.161,4.645-3.878,7.341-5.118l7.267,10.208c-0.386,0.61-0.617,1.329-0.617,2.104  c0,2.185,1.771,3.956,3.957,3.956c2.184,0,3.956-1.771,3.956-3.956s-1.772-3.957-3.956-3.957c-0.31,0-0.607,0.044-0.896,0.111  l-6.821-9.582c2.453-0.777,5.036-1.186,7.683-1.186c6.744,0,13.092,2.622,17.874,7.384c0.587,0.584,1.534,0.583,2.119-0.002  l21.989-21.989c0.281-0.281,0.439-0.663,0.439-1.061C93.514,42.488,93.355,42.106,93.073,41.825z M69.995,62.784  c-5.205-4.672-11.861-7.229-18.903-7.229c-3.29,0-6.491,0.563-9.501,1.632L29.306,39.93c-0.48-0.674-1.416-0.832-2.092-0.352  c-0.675,0.48-0.833,1.417-0.352,2.092l11.889,16.702c-2.377,1.152-4.601,2.641-6.605,4.448L12.263,42.937  c10.527-9.994,24.257-15.48,38.829-15.48c14.549,0,28.264,5.474,38.786,15.445L69.995,62.784z"/><text x="0" y="115" fill="#000000" font-size="5px" font-weight="bold" font-family="'Helvetica Neue', Helvetica, Arial-Unicode, Arial, Sans-serif">Created by mungang kim</text><text x="0" y="120" fill="#000000" font-size="5px" font-weight="bold" font-family="'Helvetica Neue', Helvetica, Arial-Unicode, Arial, Sans-serif">from the Noun Project</text></svg>