<svg xmlns="http://www.w3.org/2000/svg" viewBox="0 0 68 66.25" x="0px" y="0px"><path fill="#000000" fill-rule="evenodd" d="M447.369084,222 L449.046542,225.075339 C449.357057,225.025757 449.67552,225 450,225 C453.313708,225 456,227.686292 456,231 C456,234.313708 453.313708,237 450,237 C446.686292,237 444,234.313708 444,231 C444,229.459199 444.580788,228.054048 445.535385,226.991527 L442.812734,222 L424,222 C423.068688,222 422.260632,221.357181 422.051218,220.449719 L416.051218,194.449719 C415.843492,193.549575 416.2793,192.624282 417.105573,192.211146 C417.246385,192.140739 417.504764,192.015717 417.872979,191.843884 C418.477708,191.561677 419.176669,191.248349 419.962161,190.91171 C422.198493,189.953282 424.687308,188.996045 427.367544,188.102633 C435.054868,185.540192 442.755829,184 450,184 C457.244171,184 464.945132,185.540192 472.632456,188.102633 C475.312692,188.996045 477.801507,189.953282 480.037839,190.91171 C480.823331,191.248349 481.522292,191.561677 482.127021,191.843884 C482.495236,192.015717 482.753615,192.140739 482.894427,192.211146 C483.7207,192.624282 484.156508,193.549575 483.948782,194.449719 L477.948782,220.449719 C477.739368,221.357181 476.931312,222 476,222 L447.369084,222 L447.369084,222 Z M445.187266,218 L474.408975,218 L479.687575,195.126067 C479.309686,194.956014 478.900678,194.776226 478.462161,194.58829 C476.323493,193.671718 473.937308,192.753955 471.367544,191.897367 C464.054868,189.459808 456.755829,188 450,188 C443.244171,188 435.945132,189.459808 428.632456,191.897367 C426.062692,192.753955 423.676507,193.671718 421.537839,194.58829 C421.099322,194.776226 420.690314,194.956014 420.312425,195.126067 L425.591025,218 L440.630916,218 L430.244209,198.957704 C429.715283,197.988008 430.072599,196.773134 431.042296,196.244209 C432.011992,195.715283 433.226866,196.072599 433.755791,197.042296 L445.187266,218 L445.187266,218 Z M450,233 C451.104569,233 452,232.104569 452,231 C452,229.895431 451.104569,229 450,229 C448.895431,229 448,229.895431 448,231 C448,232.104569 448.895431,233 450,233 Z" transform="translate(-416 -184)"/><text x="0" y="68" fill="#000000" font-size="5px" font-weight="bold" font-family="'Helvetica Neue', Helvetica, Arial-Unicode, Arial, Sans-serif">Created by Andrejs Kirma</text><text x="0" y="73" fill="#000000" font-size="5px" font-weight="bold" font-family="'Helvetica Neue', Helvetica, Arial-Unicode, Arial, Sans-serif">from the Noun Project</text></svg>