<svg xmlns="http://www.w3.org/2000/svg" xmlns:xlink="http://www.w3.org/1999/xlink" version="1.1" x="0px" y="0px" viewBox="0 0 100 125" style="enable-background:new 0 0 100 100;" xml:space="preserve"><g><path d="M18,42h1v13.3c0,0.6,0.4,1,1,1c0.6,0,1-0.4,1-1V42h1.8c0.7,0,1.2-0.7,0.9-1.3L21.3,36c-0.4-0.7-1.4-0.7-1.8,0l-2.4,4.6   C16.8,41.3,17.3,42,18,42z"/><path d="M28.6,42H30v13.3c0,0.6,0.4,1,1,1s1-0.4,1-1V42h1.4c0.7,0,1.2-0.7,0.9-1.3L31.9,36c-0.4-0.7-1.4-0.7-1.8,0l-2.4,4.6   C27.4,41.3,27.9,42,28.6,42z"/><path d="M39.1,42H40v13.3c0,0.6,0.4,1,1,1s1-0.4,1-1V42h1.9c0.7,0,1.2-0.7,0.9-1.3L42.4,36c-0.4-0.7-1.4-0.7-1.8,0l-2.4,4.6   C37.9,41.3,38.4,42,39.1,42z"/><path d="M81,14.6c-1.4-2-3.7-3.4-6.2-3.7c-4.5-0.6-8.8,2.6-9.8,7.2l-1.1,4.9c-0.3,1.3-0.1,2.7,0.7,3.8s1.9,1.9,3.2,2.2l6.5,1.4   c0.4,0.1,0.7,0.1,1.1,0.1c2,0,3.9-1.2,4.7-3.1l2.3-5.5l0.1-0.3C82.9,19.3,82.4,16.7,81,14.6z M78.5,20.7L76.3,26v0   c-0.2,0.5-0.7,0.7-1.2,0.6l-6.5-1.4c-0.3-0.1-0.5-0.2-0.7-0.5c-0.2-0.2-0.2-0.5-0.1-0.8l1.1-4.9c0.5-2.4,2.6-4.1,4.9-4.1   c0.2,0,0.4,0,0.5,0c1.4,0.2,2.6,0.9,3.4,2C78.5,18,78.7,19.4,78.5,20.7z"/><path d="M73.8,31.7l-1.9-0.5c-4-1.1-7.6-0.7-10.5,1.1c-3.5,2.2-6,6.4-7.2,12.1L50.7,62c-0.1,0.6-0.6,0.9-1.2,0.9l-14.4-1.4   c-5.6-0.3-10.6,1.1-13.7,4.1c-2.7,2.5-4.3,6.1-4.3,10.4v0.4c0,2.9,2.3,5.4,5,6.3v1.5c0,2.8,2.3,4.9,5.1,4.9h32.7   c2.8,0,5.2-2.1,5.2-4.9v-6.6c0.8-1.1,1.4-2.4,1.8-3.8l10.6-35.6C78.1,35.2,76.5,32.5,73.8,31.7z M61,84.1c0,0.6-0.6,0.9-1.2,0.9   H27.1c-0.6,0-1.1-0.4-1.1-0.9V83h28.5c2.3,0,4.6-0.7,6.5-1.9V84.1z M73.6,36.8L62.9,72.5c-1,3.8-4.5,6.5-8.4,6.5H24   c-1.4,0-3-1.3-3-2.7v-0.4c0-3.2,1.2-5.7,3.1-7.5c2.1-2,5.5-3.1,9.3-3.1c0.4,0,0.9,0,1.3,0L49,66.8c2.7,0.3,5.2-1.5,5.6-4.1   l3.5-17.4c1-4.6,2.8-7.9,5.4-9.5c2-1.2,4.5-1.5,7.4-0.7l1.9,0.5C73.3,35.8,73.7,36.3,73.6,36.8z"/></g><text x="0" y="115" fill="#000000" font-size="5px" font-weight="bold" font-family="'Helvetica Neue', Helvetica, Arial-Unicode, Arial, Sans-serif"></text><text x="0" y="120" fill="#000000" font-size="5px" font-weight="bold" font-family="'Helvetica Neue', Helvetica, Arial-Unicode, Arial, Sans-serif"></text></svg>